<svg xmlns="http://www.w3.org/2000/svg" version="1.0" width="840.000000pt" height="761.000000pt" viewBox="0 0 840.000000 761.000000" preserveAspectRatio="xMidYMid meet">
<metadata fill="#cba344">
Created by potrace 1.16, written by Peter Selinger 2001-2019
</metadata>
<g transform="translate(0.000000,761.000000) scale(0.100000,-0.100000)" fill="#cba344" stroke="none">
<path d="M3607 7200 c-144 -6 -148 -7 -185 -37 -20 -16 -43 -43 -51 -59 -24 -48 -31 -1002 -29 -3474 l3 -2234 810 -2 c446 -1 831 0 858 3 l47 6 0 2656 c0 2546 -4 2946 -30 3041 -12 44 -45 74 -99 92 -42 13 -1078 20 -1324 8z" fill="#cba344"/>
<path d="M5692 5048 l-52 -54 2 -1799 3 -1800 850 0 850 0 0 1735 c0 954 -4 1765 -8 1802 -5 42 -17 80 -31 100 -42 64 -25 62 -831 66 l-730 3 -53 -53z" fill="#cba344"/>
<path d="M1313 3960 c-121 -6 -134 -8 -173 -34 -64 -42 -71 -68 -81 -315 -10 -265 -12 -2211 -1 -2212 28 -5 1455 -6 1565 -2 l138 6 -3 1221 c-3 1206 -3 1221 -23 1256 -35 60 -72 70 -277 80 -204 10 -941 10 -1145 0z" fill="#cba344"/>
<path d="M530 841 c-199 -7 -219 -13 -277 -89 -99 -131 -55 -305 98 -383 l58 -29 3791 0 3791 0 52 26 c72 36 114 79 137 141 33 89 21 176 -36 250 -47 62 -90 75 -269 84 -179 9 -7071 9 -7345 0z" fill="#cba344"/>
</g>
</svg>